<?xml version="1.0" encoding="utf-8"?>
<!-- Generator: Adobe Illustrator 25.3.1, SVG Export Plug-In . SVG Version: 6.00 Build 0)  -->
<svg version="1.1" id="layer" xmlns="http://www.w3.org/2000/svg" xmlns:xlink="http://www.w3.org/1999/xlink" x="0px" y="0px"
	 viewBox="0 0 512 512" style="enable-background:new 0 0 512 512;" xml:space="preserve">
<style type="text/css">
	.st0{fill:#ACDCE9;}
	.st1{fill:#9D2D73;}
	.st2{fill:#5CB531;}
	.st3{fill:#A7CE48;}
	.st4{fill:#E84A84;}
	.st5{fill:#CF4693;}
	.st6{fill:#801065;}
	.st7{fill:#77CBF2;}
	.st8{fill:#00ABCF;}
</style>
<g>
	<g>
		<g>
			<path class="st0" d="M347.8,75.6c-12.2,18.9-27.3,35.8-44.9,49.8c24.9-0.8,49.5,6.1,70,19.7c1.4-1,3-2.3,4.6-3.3
				c20-12.3,47.1-6.9,60.3,11.7c13.2,18.9,7.6,44.2-12.7,56.4c-1.6,1-3.2,1.8-4.9,2.6c4.6,21.5,1.9,43.9-7,63.8
				c19.7-12.8,42.5-21.5,66.2-25.3c4.1-36-4.3-73.5-27.3-106.2C427.1,108.8,389.2,85.1,347.8,75.6"/>
			<path class="st0" d="M35.5,137.7c-14.6,36.3-20.8,75.1-18.1,113.9c34.9-27.6,76.3-47.2,120.9-57.7c1.9-6.6,4.1-13.3,6.8-19.7
				c-14.6-1-29.2-3.3-43.8-7.4C76.6,160.4,54.7,150.4,35.5,137.7"/>
		</g>
	</g>
	<path class="st1" d="M63.6,382.6c49.8,71.2,129,113.6,212.8,121.8c23.8-26.6,42.2-58.2,53-93.7c1.6-5.1,3-10.2,4.1-15.3
		c-36.2,5.4-73.5-0.3-106-15.6c-39.5,20.9-90.3,9.7-115.5-26.6c-25.1-36.3-15.7-84,20.6-109.6c-1.1-16.6,0.8-33.2,5.1-49.3
		C93.4,204.8,52,224.8,16.9,252.1C20.4,296.8,35.5,341.7,63.6,382.6"/>
	<path class="st2" d="M63.4,85.8c-11.4,16.3-20.8,33.7-28.1,51.8c19.5,12.8,41.4,22.7,65.4,29.1c14.6,3.8,29.2,6.4,43.8,7.2
		c9.7-23,24.9-44.2,45.4-61.3c-14.9-6.9-30.8-12.8-47.3-17.4C116.4,88.6,89.6,85.3,63.4,85.8"/>
	<path class="st3" d="M142.6,95.5c16.5,4.3,32.4,10.2,47.3,17.4c6.5-5.6,13.5-10.7,21.1-15.3L147.7,6.4
		c-34.9,21.5-63.3,48.5-84.4,79.4C89.6,85.3,116.4,88.6,142.6,95.5"/>
	<path class="st3" d="M347.8,75.6c-36-8.2-74.4-5.9-109.8,8.4l32.4,46.5c10.5-3.3,21.6-4.9,32.4-5.4
		C320.5,111.4,335.7,94.5,347.8,75.6"/>
	<path class="st4" d="M447.1,329.7c18.1-23.2,28.9-50.6,32.2-78.7c-23.8,3.8-46.5,12.5-66.2,25.3c-1.9,4.3-4.3,8.7-6.8,12.8
		c-3.8,6.1-8.4,12-13.5,17.4l32.4,46.5C433.5,345.8,440.8,338.1,447.1,329.7"/>
	<path class="st4" d="M401.4,370.6c-3.2,2-6.5,3.8-10,5.6c-16.2,8.4-33.3,14.3-50.6,17.6c-2.4,0.5-4.9,0.8-7.3,1.3
		c-1.1,5.1-2.7,10.2-4.1,15.3c-10.8,35.5-29.2,67.2-53,93.7c31.9,3.1,64.4,1.3,96.3-5.6s63-19.2,91.9-37L401.4,370.6"/>
	<path class="st5" d="M227.8,379.3c1.6-0.8,3.2-1.8,4.9-2.8c40.3-24.5,51.6-75.1,25.4-112.9c-26.2-37.8-80-48.3-120.3-23.7
		c-1.6,1-3.2,2-4.6,3.1c1.6,27.6,10.8,55.2,27.9,79.9C178,347.9,201.3,366.7,227.8,379.3"/>
	<path class="st6" d="M112.3,352.7c25.1,36.3,75.7,47.5,115.5,26.6c-26.2-12.5-49.5-31.4-66.8-56.2c-17.3-24.8-26.2-52.4-27.9-79.9
		C96.6,268.7,87.2,316.7,112.3,352.7"/>
	<path class="st7" d="M373,145.1c-16.2,13-20.3,35.8-8.1,53.1c12.2,17.4,35.7,23.2,55.2,14.6c-2.7-13.3-8.4-26-16.5-38.1
		C395.2,162.7,384.9,152.7,373,145.1"/>
	<path class="st8" d="M437.9,153.5c-13.2-18.9-40-24.3-60.3-11.7c-1.6,1-3,2-4.6,3.3c11.6,7.7,22.2,17.6,30.6,29.6
		c8.4,12,13.8,24.8,16.5,38.1c1.6-0.8,3.2-1.5,4.9-2.6C445.2,197.7,450.9,172.4,437.9,153.5"/>
</g>
</svg>
