<svg xmlns="http://www.w3.org/2000/svg" width="1764" height="252" viewBox="0 0 1764 252">
  <g id="Layer_2" data-name="Layer 2">
    <g id="Layer_1-2" data-name="Layer 1">
      <rect width="441" height="252" fill="#fff"/>
      <path d="M83.79,181.38l7.63-12.87h34v-4.67H94.2l4.44-7.49h26.82v-4.64H101.39l6.83-11.55-4.12-2L96,151.71H62.31v4.64h30.9l-4.47,7.49H62.31v4.67H86l-6.41,10.75Z"/>
      <path d="M198.69,140.48l-4,3.39,9.13,10a16.35,16.35,0,0,0,4.09,3.68H136.24v4.74h71.65A22.93,22.93,0,0,0,203.8,166l-9.13,10,4,3.4L216,160Zm19.35,0-4,3.39L228.7,160l-14.62,16.09,4,3.4L235.41,160Z"/>
      <path d="M265.4,162.37h26.92V175h5V162.37h12.55v-4.51H297.33V145.09h-5v12.77H265.4V145.09h-5v12.77H248v4.51h12.39V175h5Z"/>
      <path d="M328.44,152.22a5.16,5.16,0,1,0,5.14-5.15A5.08,5.08,0,0,0,328.44,152.22Zm56.1-.51H349.19v4.64h35.35ZM328.44,168a5.16,5.16,0,1,0,5.14-5.15A5.09,5.09,0,0,0,328.44,168Zm56.1-4.13H349.19v4.67h35.35Z"/>
      <path d="M71.21,80.48H90.94l.67-4.54H65.72V120h5.49V100.38H88.45V95.9H71.21Z"/>
      <path d="M125.62,75.94H100.46v4.44h9.77v35.17h-9.77V120h25.16v-4.45h-9.77V80.38h9.77Z"/>
      <path d="M162.54,88.29c0-8.13-5.69-12.35-16.54-12.35H134.7V120h5.55V101.09h5.94l12,18.91h6.64l-13-19.55C157.85,99,162.54,94.91,162.54,88.29Zm-5.94,0c0,6.11-3.64,8.45-10,8.45h-6.39V80.35h6.39C153.41,80.35,156.6,82.66,156.6,88.29Z"/>
      <path d="M195.59,108.77,199.1,120h5.81l-14.3-44.06h-7.09L169.21,120h5.47l3.51-11.23Zm-16-4.61,7.31-23.55,7.22,23.55Z"/>
      <path d="M253.22,75.23c-10.18,0-18.8,7.87-18.8,22.72s8.3,22.79,19,22.79c6.25,0,10.47-2.18,13.15-4.8l-2.87-3.65A15,15,0,0,1,253.51,116c-7.47,0-13.35-4.9-13.35-18,0-13.47,6.26-18.08,13.48-18.08a13.74,13.74,0,0,1,9.22,3.27l3.1-3.62C262.48,76.7,259,75.23,253.22,75.23Z"/>
      <path d="M339.66,97.76c0-18.3-10.28-21.82-20.56-21.82h-9.38V120H319.8C328.9,120,339.66,116.22,339.66,97.76Zm-5.9,0c0,14.59-7,17.79-13.28,17.79h-5.24V80.48h5.17C326.45,80.48,333.76,82.4,333.76,97.76Z"/>
      <path d="M302.76,98c0-13.63-5.49-22.78-16.18-22.78s-16.19,9.47-16.19,22.85c0,13.63,5.49,22.65,16.19,22.65S302.76,111.36,302.76,98ZM297,98c0,11.75-3,18-10.37,18-7.22,0-10.38-6.24-10.38-18s3-18.21,10.38-18.21S297,86.24,297,98Z"/>
      <path d="M384.13,66H344.22v64h39.91Zm-9.56,14.48H355.8V95.33h16.28V99.9H355.8v15.65h20V120H350.24V75.94h25Z" fill-rule="evenodd"/>
      <rect x="441" width="441" height="252" fill="#f7f7f7"/>
      <path d="M524.79,181.38l7.63-12.87h34v-4.67H535.2l4.44-7.49h26.82v-4.64H542.39l6.83-11.55-4.12-2L537,151.71H503.31v4.64h30.9l-4.47,7.49H503.31v4.67H527l-6.42,10.75Z" fill="#795da3"/>
      <path d="M639.69,140.48l-4,3.39,9.13,10a16.35,16.35,0,0,0,4.09,3.68H577.24v4.74h71.65A22.93,22.93,0,0,0,644.8,166l-9.13,10,4,3.4L657,160Zm19.35,0-4,3.39L669.7,160l-14.62,16.09,4,3.4L676.41,160Z" fill="#795da3"/>
      <path d="M706.4,162.37h26.92V175h5V162.37h12.55v-4.51H738.33V145.09h-5v12.77H706.4V145.09h-5v12.77H689v4.51h12.39V175h5Z" fill="#795da3"/>
      <path d="M769.44,152.22a5.16,5.16,0,1,0,5.14-5.15A5.08,5.08,0,0,0,769.44,152.22Zm56.1-.51H790.19v4.64h35.35ZM769.44,168a5.16,5.16,0,1,0,5.14-5.15A5.09,5.09,0,0,0,769.44,168Zm56.1-4.13H790.19v4.67h35.35Z" fill="#795da3"/>
      <path d="M512.21,80.48h19.73l.67-4.54H506.72V120h5.49V100.38h17.24V95.9H512.21Z" fill="#a71d5d"/>
      <path d="M566.62,75.94H541.46v4.44h9.77v35.17h-9.77V120h25.16v-4.45h-9.77V80.38h9.77Z" fill="#a71d5d"/>
      <path d="M603.54,88.29c0-8.13-5.69-12.35-16.54-12.35H575.7V120h5.55V101.09h5.94l12,18.91h6.64l-13-19.55C598.84,99,603.54,94.91,603.54,88.29Zm-5.94,0c0,6.11-3.64,8.45-10,8.45h-6.39V80.35h6.39C594.41,80.35,597.6,82.66,597.6,88.29Z" fill="#a71d5d"/>
      <path d="M636.59,108.77,640.1,120h5.81l-14.3-44.06h-7.09L610.22,120h5.45l3.52-11.23Zm-16-4.61,7.31-23.55,7.22,23.55Z" fill="#a71d5d"/>
      <path d="M694.22,75.23c-10.18,0-18.8,7.87-18.8,22.72s8.3,22.79,19,22.79c6.25,0,10.47-2.18,13.15-4.8l-2.87-3.65A15,15,0,0,1,694.51,116c-7.47,0-13.35-4.9-13.35-18,0-13.47,6.26-18.08,13.48-18.08a13.74,13.74,0,0,1,9.22,3.27l3.1-3.62C703.48,76.7,700,75.23,694.22,75.23Z" fill="#a71d5d"/>
      <path d="M780.66,97.76c0-18.3-10.28-21.82-20.56-21.82h-9.38V120H760.8C769.91,120,780.66,116.22,780.66,97.76Zm-5.9,0c0,14.59-7,17.79-13.28,17.79h-5.24V80.48h5.17C767.45,80.48,774.76,82.4,774.76,97.76Z" fill="#a71d5d"/>
      <path d="M743.76,98c0-13.63-5.49-22.78-16.18-22.78s-16.19,9.47-16.19,22.85c0,13.63,5.49,22.65,16.19,22.65S743.76,111.36,743.76,98ZM738,98c0,11.75-3,18-10.37,18-7.22,0-10.38-6.24-10.38-18s3-18.21,10.38-18.21S738,86.24,738,98Z" fill="#a71d5d"/>
      <path d="M825.13,66H785.22v64h39.91Zm-9.56,14.48H796.8V95.33h16.28V99.9H796.8v15.65h20V120H791.24V75.94h25Z" fill="#0086b3" fill-rule="evenodd"/>
      <rect x="882" width="441" height="252" fill="#eff0f3"/>
      <path d="M965.79,181.38l7.63-12.87h34v-4.67H976.2l4.44-7.49h26.82v-4.64H983.39l6.83-11.55-4.12-2L978,151.71H944.31v4.64h30.9l-4.47,7.49H944.31v4.67H968l-6.42,10.75Z" fill="#d05400"/>
      <path d="M1080.69,140.48l-4,3.39,9.13,10a16.35,16.35,0,0,0,4.09,3.68h-71.65v4.74h71.65a22.93,22.93,0,0,0-4.09,3.68l-9.13,10,4,3.4L1098,160Zm19.35,0-4,3.39L1110.7,160l-14.62,16.09,4,3.4L1117.41,160Z" fill="#d05400"/>
      <path d="M1147.4,162.37h26.92V175h5V162.37h12.55v-4.51h-12.55V145.09h-5v12.77H1147.4V145.09h-5v12.77H1130v4.51h12.39V175h5Z" fill="#d05400"/>
      <path d="M1210.44,152.22a5.16,5.16,0,1,0,5.14-5.15A5.08,5.08,0,0,0,1210.44,152.22Zm56.1-.51h-35.35v4.64h35.35ZM1210.44,168a5.16,5.16,0,1,0,5.14-5.15A5.09,5.09,0,0,0,1210.44,168Zm56.1-4.13h-35.35v4.67h35.35Z" fill="#d05400"/>
      <path d="M953.21,80.48h19.73l.67-4.54H947.72V120h5.49V100.38h17.24V95.9H953.21Z" fill="#007ccd"/>
      <path d="M1007.62,75.94H982.46v4.44h9.77v35.17h-9.77V120h25.16v-4.45h-9.77V80.38h9.77Z" fill="#007ccd"/>
      <path d="M1044.54,88.29c0-8.13-5.69-12.35-16.54-12.35h-11.3V120h5.55V101.09h5.94l12,18.91h6.64l-13-19.55C1039.84,99,1044.54,94.91,1044.54,88.29Zm-5.94,0c0,6.11-3.64,8.45-10,8.45h-6.39V80.35h6.39C1035.41,80.35,1038.6,82.66,1038.6,88.29Z" fill="#007ccd"/>
      <path d="M1077.59,108.77,1081.1,120h5.81l-14.3-44.06h-7.09L1051.22,120h5.45l3.52-11.23Zm-16-4.61,7.31-23.55,7.22,23.55Z" fill="#007ccd"/>
      <path d="M1135.22,75.23c-10.18,0-18.8,7.87-18.8,22.72s8.3,22.79,19,22.79c6.25,0,10.47-2.18,13.15-4.8l-2.87-3.65a15,15,0,0,1-10.22,3.68c-7.47,0-13.35-4.9-13.35-18,0-13.47,6.26-18.08,13.48-18.08a13.74,13.74,0,0,1,9.22,3.27l3.1-3.62C1144.48,76.7,1141,75.23,1135.22,75.23Z" fill="#007ccd"/>
      <path d="M1221.66,97.76c0-18.3-10.28-21.82-20.56-21.82h-9.38V120h10.09C1210.9,120,1221.66,116.22,1221.66,97.76Zm-5.9,0c0,14.59-7,17.79-13.28,17.79h-5.24V80.48h5.17C1208.45,80.48,1215.76,82.4,1215.76,97.76Z" fill="#007ccd"/>
      <path d="M1184.76,98c0-13.63-5.49-22.78-16.18-22.78s-16.19,9.47-16.19,22.85c0,13.63,5.49,22.65,16.19,22.65S1184.76,111.36,1184.76,98ZM1179,98c0,11.75-3,18-10.37,18-7.22,0-10.38-6.24-10.38-18s3-18.21,10.38-18.21S1179,86.24,1179,98Z" fill="#007ccd"/>
      <path d="M1266.13,66h-39.91v64h39.91Zm-9.56,14.48H1237.8V95.33h16.28V99.9H1237.8v15.65h20V120h-25.54V75.94h25Z" fill="#69287a" fill-rule="evenodd"/>
      <rect x="1323" width="441" height="252" fill="#efe7d4"/>
      <path d="M1406.79,181.38l7.63-12.87h34v-4.67H1417.2l4.44-7.49h26.82v-4.64h-24.07l6.83-11.55-4.12-2-8.11,13.6h-33.68v4.64h30.9l-4.47,7.49h-26.43v4.67H1409l-6.41,10.75Z" fill="#008ed4"/>
      <path d="M1521.69,140.48l-4,3.39,9.13,10a16.35,16.35,0,0,0,4.09,3.68h-71.65v4.74h71.65a22.93,22.93,0,0,0-4.09,3.68l-9.13,10,4,3.4L1539,160Zm19.35,0-4,3.39L1551.7,160l-14.62,16.09,4,3.4L1558.41,160Z" fill="#008ed4"/>
      <path d="M1588.4,162.37h26.92V175h5V162.37h12.55v-4.51h-12.55V145.09h-5v12.77H1588.4V145.09h-5v12.77H1571v4.51h12.39V175h5Z" fill="#008ed4"/>
      <path d="M1651.44,152.22a5.16,5.16,0,1,0,5.14-5.15A5.08,5.08,0,0,0,1651.44,152.22Zm56.1-.51h-35.35v4.64h35.35ZM1651.44,168a5.16,5.16,0,1,0,5.14-5.15A5.09,5.09,0,0,0,1651.44,168Zm56.1-4.13h-35.35v4.67h35.35Z" fill="#008ed4"/>
      <path d="M1394.21,80.48h19.73l.67-4.54h-25.89V120h5.49V100.38h17.24V95.9h-17.24Z" fill="#d34e01"/>
      <path d="M1448.62,75.94h-25.16v4.44h9.77v35.17h-9.77V120h25.16v-4.45h-9.77V80.38h9.77Z" fill="#d34e01"/>
      <path d="M1485.54,88.29c0-8.13-5.69-12.35-16.54-12.35h-11.3V120h5.55V101.09h5.94l12,18.91h6.64l-13-19.55C1480.84,99,1485.54,94.91,1485.54,88.29Zm-5.94,0c0,6.11-3.64,8.45-10,8.45h-6.39V80.35h6.39C1476.41,80.35,1479.6,82.66,1479.6,88.29Z" fill="#d34e01"/>
      <path d="M1518.59,108.77,1522.1,120h5.81l-14.3-44.06h-7.09L1492.22,120h5.45l3.52-11.23Zm-16-4.61,7.31-23.55,7.22,23.55Z" fill="#d34e01"/>
      <path d="M1576.22,75.23c-10.18,0-18.8,7.87-18.8,22.72s8.3,22.79,19,22.79c6.25,0,10.47-2.18,13.15-4.8l-2.87-3.65a15,15,0,0,1-10.22,3.68c-7.47,0-13.35-4.9-13.35-18,0-13.47,6.26-18.08,13.48-18.08a13.74,13.74,0,0,1,9.22,3.27l3.1-3.62C1585.48,76.7,1582,75.23,1576.22,75.23Z" fill="#d34e01"/>
      <path d="M1662.66,97.76c0-18.3-10.28-21.82-20.56-21.82h-9.38V120h10.09C1651.9,120,1662.66,116.22,1662.66,97.76Zm-5.9,0c0,14.59-7,17.79-13.28,17.79h-5.24V80.48h5.17C1649.45,80.48,1656.76,82.4,1656.76,97.76Z" fill="#d34e01"/>
      <path d="M1625.76,98c0-13.63-5.49-22.78-16.18-22.78s-16.19,9.47-16.19,22.85c0,13.63,5.49,22.65,16.19,22.65S1625.76,111.36,1625.76,98ZM1620,98c0,11.75-3,18-10.37,18-7.22,0-10.38-6.24-10.38-18s3-18.21,10.38-18.21S1620,86.24,1620,98Z" fill="#d34e01"/>
      <path d="M1707.13,66h-39.91v64h39.91Zm-9.56,14.48H1678.8V95.33h16.28V99.9H1678.8v15.65h20V120h-25.54V75.94h25Z" fill="#ba8800" fill-rule="evenodd"/>
    </g>
  </g>
</svg>
